# xmcd
#
# Track frame offsets:
#  150
#  10251
#  21571
#  35976
#  46363
#  56080
#  66383
#  79117
#  91718
#  101122
#  112728
#  127608
#
# Disc length: 1862 seconds
#
# Revision: 0
# Processed by: cddbd v1.5.1PL0 Copyright (c) Steve Scherf et al.
# Submitted via: Collectorz.com Music Collector 6.9
#
DISCID=9a07440c
DTITLE=Sons Of The Pioneers - Tumbling Tumbleweeds  (Record ! of 7)
DYEAR=1900
DGENRE=General Country
TTITLE0=Cool Water
TTITLE1=Tumbling Tumbleweeds
TTITLE2=Slim Whitman' - The Red River Valley
TTITLE3=Wagon Wheels
TTITLE4=Whoopee Ti Yi Yo (Git Along Little Dogies)
TTITLE5=A Cowboy's Dream 
TTITLE6=The Cattlemen - She'll Be Comin' Round The Mountain
TTITLE7=Snow, Hank - The Golden Rocket
TTITLE8=Arnold, Eddy - The Wreck of The Old 97
TTITLE9=Snow, Hank - The Wabash Cannonball
TTITLE10=Haggard, Merle - Train Whistle Blues
TTITLE11=Arnold, Eddy - Casey Jones (The Brave Engineer)
EXTD=
EXTT0=
EXTT1=
EXTT2=
EXTT3=
EXTT4=
EXTT5=
EXTT6=
EXTT7=
EXTT8=
EXTT9=
EXTT10=
EXTT11=
PLAYORDER=
